<svg width="274" height="61" viewBox="0 0 274 61" fill="none" xmlns="http://www.w3.org/2000/svg">
<path d="M209.445 19.7773C209.445 22.9492 209.411 25.5547 209.377 25.5547C209.331 25.5547 209.014 25.2828 208.651 24.9543C206.101 22.5867 201.149 22.0883 197.091 23.7988C192.456 25.7473 189.793 30.6977 190.291 36.4297C190.813 42.5242 194.666 46.6363 200.582 47.4293C201.727 47.5879 203.812 47.4973 204.934 47.2594C206.453 46.9309 207.847 46.2172 208.991 45.1863C209.354 44.8578 209.683 44.5859 209.717 44.5859C209.751 44.5859 209.785 45.175 209.785 45.8887V47.1914H216.358V14H209.445V19.7773ZM204.821 28.6246C206.192 28.9191 207.654 29.9273 208.47 31.1395C209.762 33.0992 209.909 36.3391 208.81 38.5707C208.073 40.066 206.611 41.2441 204.991 41.6293C204.696 41.6973 203.982 41.7539 203.404 41.7652C201.557 41.7652 200.378 41.2895 199.12 40.0547C197.885 38.8313 197.318 37.3359 197.318 35.2289C197.318 33.7109 197.477 32.9293 197.998 31.8305C198.735 30.3012 200.265 29.0551 201.885 28.6586C202.633 28.4773 204.05 28.466 204.821 28.6246Z" fill="white"/>
<path d="M85.5714 15.4274C81.65 15.8919 79.0207 17.002 77.0713 18.9958C74.5213 21.6012 73.8867 25.7927 75.5413 29.0665C76.1193 30.2106 77.7287 31.6606 79.2813 32.4423C80.256 32.9294 82.8853 33.7563 85.5714 34.402C89.9007 35.4669 91.068 35.9087 92.0314 36.8716C92.8134 37.6532 92.972 38.2876 92.6434 39.3637C92.292 40.5532 91.136 41.3462 89.232 41.7087C87.8607 41.9692 84.846 41.8786 83.2593 41.5387C81.072 41.0743 78.794 40.1567 77.1053 39.0805C76.7653 38.8653 76.4593 38.7067 76.4367 38.7294C76.414 38.752 75.8587 39.9641 75.2013 41.4255L74 44.0762L74.306 44.3255C74.8613 44.7673 76.4367 45.5829 77.638 46.0587C82.024 47.8032 87.872 48.1884 92.2127 47.0329C94.1847 46.5005 96.134 45.4243 97.4034 44.1669C99.0807 42.513 99.9647 40.3833 99.9647 37.993C99.9647 35.0817 98.8427 32.9973 96.406 31.4001C94.8534 30.3805 93.3687 29.8708 88.348 28.6134C83.7127 27.4466 82.602 26.9708 82.0693 25.8606C81.548 24.7958 81.888 23.3118 82.8287 22.4848C84.064 21.3973 86.6593 20.9102 89.4247 21.2501C91.4874 21.5106 93.6407 22.179 95.556 23.1645L96.4287 23.6063L97.528 20.8762C98.786 17.7723 98.786 18.1235 97.528 17.4891C95.9414 16.6848 93.822 16.0165 91.578 15.6427C90.5467 15.4614 86.4667 15.3255 85.5714 15.4274Z" fill="white"/>
<path d="M113.961 22.8471C110.437 23.1756 107.105 24.9881 105.065 27.6842C104.283 28.7151 103.421 30.4823 103.07 31.785C102.707 33.1331 102.583 35.6592 102.787 37.1206C103.569 42.3995 107.377 46.1264 113.168 47.2706C114.573 47.5424 118.189 47.5424 119.571 47.2706C121.793 46.8288 123.481 46.0698 125.011 44.835C126.485 43.6456 126.541 43.9401 124.422 41.6292L122.586 39.6354L121.917 40.1792C120.365 41.4366 118.971 41.8784 116.625 41.901C114.879 41.9124 113.825 41.6858 112.613 41.0401C111.298 40.3377 109.995 38.7178 109.757 37.4717L109.689 37.1092H127.822L127.913 36.237C128.389 31.128 125.839 26.2682 121.589 24.1725C119.333 23.051 116.636 22.5866 113.961 22.8471ZM117.021 28.2167C118.767 28.6698 120.059 29.712 120.818 31.2639C121.067 31.7624 121.294 32.3741 121.339 32.6006L121.407 33.0311H120.149C119.22 33.0311 118.891 32.9971 118.891 32.8838C118.891 32.8159 118.767 32.4874 118.619 32.1702C117.384 29.5081 113.599 29.5081 112.363 32.1702C112.216 32.4874 112.091 32.8159 112.091 32.8838C112.091 32.9971 111.763 33.0311 110.845 33.0311C109.417 33.0311 109.485 33.0877 109.825 31.9776C110.403 30.1198 112.035 28.6358 113.95 28.2167C114.902 28.0127 116.217 28.0127 117.021 28.2167Z" fill="white"/>
<path d="M142.181 22.8472C139.994 23.0398 137.523 23.9461 135.778 25.1922C134.248 26.2797 132.809 28.0242 131.97 29.7801C130.451 33.0199 130.451 37.2453 131.981 40.4738C132.571 41.7312 133.001 42.3656 133.908 43.3398C136.356 45.9906 139.518 47.316 143.768 47.4972C147.134 47.6332 150.024 46.9648 152.234 45.5488C153.039 45.0164 154.365 43.8496 154.365 43.657C154.365 43.5211 150.851 39.7148 150.727 39.7148C150.681 39.7148 150.466 39.8621 150.262 40.0433C149.378 40.8136 148.245 41.3914 146.998 41.7086C145.944 41.9804 143.575 41.9691 142.521 41.6972C140.345 41.1422 138.691 39.7148 138.045 37.8457C137.92 37.4832 137.818 37.166 137.818 37.1433C137.818 37.132 141.921 37.1094 146.93 37.1094H156.031L156.11 35.9312C156.257 33.5976 155.804 31.2754 154.818 29.2929C152.903 25.498 149.435 23.2324 144.913 22.8359C144.221 22.7793 143.553 22.734 143.428 22.734C143.303 22.7453 142.748 22.7906 142.181 22.8472ZM145.162 28.2168C147.089 28.6699 148.641 30.0293 149.242 31.7965C149.367 32.1363 149.491 32.5441 149.537 32.714L149.605 33.0312H148.358C147.259 33.0312 147.1 33.0086 147.043 32.8273C146.522 31.1621 145.264 30.1879 143.655 30.1879C142.283 30.1879 141.173 30.8789 140.538 32.1363C140.413 32.3742 140.311 32.6687 140.311 32.8047C140.311 33.0199 140.243 33.0312 139.065 33.0312C137.625 33.0312 137.671 33.0765 138.033 31.9097C138.419 30.6637 139.371 29.4969 140.549 28.8058C141.705 28.1262 143.7 27.8769 145.162 28.2168Z" fill="white"/>
<path d="M174.028 22.8358C171.705 23.085 169.415 24.0706 167.885 25.4752L167.398 25.9284V23.1756H160.825V47.1913H167.727L167.772 40.3604C167.806 34.2545 167.829 33.4729 168.01 32.8725C168.611 30.8561 169.937 29.5081 171.829 29.0096C172.611 28.7944 174.311 28.7944 175.082 28.9983C176.295 29.3268 177.258 30.1424 177.791 31.2979C178.346 32.4987 178.38 33.1217 178.391 40.417V47.1913H185.305V39.5108C185.305 31.3319 185.271 30.7088 184.727 29.0663C184.239 27.571 183.639 26.5967 182.528 25.4752C181.621 24.5803 181.338 24.3651 180.307 23.8667C178.482 22.9717 176.238 22.6092 174.028 22.8358Z" fill="white"/>
<path d="M230.865 22.8357C228.791 22.9943 226.649 23.4928 224.869 24.2178C223.906 24.6029 222.251 25.5432 222.251 25.6904C222.251 25.7471 222.784 26.8572 223.453 28.1713L224.643 30.5389L225.153 30.1877C227.51 28.5678 231.794 27.8428 234.129 28.6584C235.84 29.2701 236.905 30.5728 237.064 32.2721L237.132 33.0084L233.063 33.065C228.632 33.133 227.918 33.2123 226.059 33.8353C222.943 34.8775 221.311 37.0752 221.311 40.2244C221.311 42.1275 221.843 43.5549 223.033 44.8463C224.11 46.0131 225.289 46.6814 227.125 47.1685C228.077 47.4178 228.439 47.4518 230.185 47.4631C232.315 47.4744 233.165 47.3385 234.491 46.8061C235.613 46.3416 236.803 45.39 237.336 44.5291L237.551 44.1893V47.1912L240.815 47.1685L244.068 47.1346L244.102 40.281C244.113 36.5088 244.079 32.8385 244.023 32.1135C243.694 28.2619 242.164 25.7244 239.251 24.2064C237.087 23.0736 234.106 22.5865 230.865 22.8357ZM237.098 38.4119C237.098 39.5221 237.064 39.7939 236.86 40.1904C236.554 40.7908 235.693 41.6971 235.115 42.0482C233.607 42.9205 231.273 43.0904 229.72 42.4221C227.567 41.4932 227.499 38.4799 229.607 37.5736C230.479 37.1998 231.159 37.1318 234.242 37.1205L237.098 37.1092V38.4119Z" fill="white"/>
<path d="M251.514 35.0359C254.313 41.5722 256.659 47.021 256.705 47.157C256.784 47.3495 256.716 47.5761 256.444 48.1085C255.447 50.0456 253.939 50.8273 251.865 50.4761C251.015 50.3402 249.871 49.853 249.247 49.3773C249.043 49.2187 248.851 49.1167 248.828 49.1394C248.805 49.162 248.227 50.2609 247.547 51.5863L246.301 53.9991L246.72 54.339C248.239 55.5964 251.491 56.3894 254.143 56.1402C255.617 55.9929 256.421 55.7777 257.725 55.1433C258.665 54.6902 258.937 54.4862 259.935 53.4894C261.159 52.2546 261.805 51.2917 262.587 49.4905C262.983 48.5956 266.746 39.7484 268.559 35.4663C268.956 34.5261 270.293 31.3882 271.529 28.4655L273.795 23.1753H267.075L266.032 25.7015C265.148 27.8425 261.091 37.5847 260.513 38.978L260.32 39.4312L259.663 37.8452C259.3 36.973 258.019 33.8917 256.829 30.9917C255.628 28.0917 254.415 25.1464 254.121 24.4441L253.588 23.1753H246.414L251.514 35.0359Z" fill="white"/>
<path d="M46.898 0L14.102 0C6.31367 0 0 6.14481 0 13.7248L0 47.2752C0 54.8552 6.31367 61 14.102 61H46.898C54.6863 61 61 54.8552 61 47.2752V13.7248C61 6.14481 54.6863 0 46.898 0Z" fill="url(#paint0_linear_424_89)"/>
<path d="M23.3646 11.6507L20.3437 13.285L20.3027 36.5087L25.133 41.3218L29.955 46.143L34.8262 41.2891L39.6892 36.427V13.2605L36.7338 11.6752C35.1046 10.7926 33.7046 10.0572 33.6391 10.0245C33.5 9.97548 33.5 10.5965 33.5 22.331V34.6783L30.0042 38.1675L26.5084 34.6783V22.3391C26.5084 15.5485 26.4838 10 26.4511 10C26.4101 10 25.0266 10.7436 23.3646 11.6507Z" fill="white"/>
<path d="M40.8026 37.0641L38.06 39.8016L35.3174 42.5473V46.3961C35.3174 48.5697 35.3501 50.2694 35.3911 50.294C35.432 50.3185 38.06 47.7689 41.2283 44.6229L47 38.9109V18.964L44.1674 17.4441C42.6037 16.6024 41.2037 15.8506 41.0727 15.7607L40.8108 15.6055V37.0641H40.8026Z" fill="white"/>
<path d="M16.0373 17.3626L13 18.9969V38.8948L18.7472 44.6312C22.1529 48.0306 24.5353 50.3432 24.5844 50.3187C24.6499 50.2778 24.6745 49.1665 24.6745 46.4453V42.621L19.1893 37.1542V26.4331C19.1893 20.5332 19.1647 15.7119 19.132 15.7119C19.091 15.7119 17.6993 16.4555 16.0373 17.3626Z" fill="white"/>
<defs>
<linearGradient id="paint0_linear_424_89" x1="-3.50365" y1="1.964" x2="41.6151" y2="41.9437" gradientUnits="userSpaceOnUse">
<stop stop-color="#C45CAB"/>
<stop offset="1" stop-color="#A12AFF"/>
</linearGradient>
</defs>
</svg>
