<svg width="46" height="46" viewBox="0 0 46 46" fill="none" xmlns="http://www.w3.org/2000/svg">
    <path d="M43.454 18.443H41.017C40.564 16.677 39.857 15.023 38.935 13.51L40.687 11.754C41.16 11.281 41.42 10.65 41.42 9.98C41.42 9.311 41.158 8.679 40.687 8.207L37.767 5.29C36.82 4.342 35.165 4.343 34.222 5.289L32.396 7.104C30.9 6.232 29.296 5.56 27.529 5.128V2.52C27.529 1.137 26.424 0 25.041 0H20.913C19.53 0 18.442 1.137 18.442 2.52V5.127C16.676 5.558 15.062 6.231 13.564 7.104L11.739 5.289C10.793 4.341 9.137 4.342 8.188 5.288L5.27 8.205C4.802 8.672 4.535 9.318 4.535 9.978C4.535 10.647 4.794 11.277 5.268 11.75L7.02 13.51C6.099 15.023 5.391 16.677 4.939 18.443H2.501C1.117 18.443 0 19.555 0 20.935V25.06C0 26.444 1.117 27.531 2.501 27.531H4.939C5.391 29.297 6.098 30.961 7.018 32.474L5.266 34.237C4.792 34.71 4.532 35.343 4.532 36.013C4.532 36.683 4.793 37.316 5.266 37.789L8.186 40.708C8.66 41.181 9.289 41.441 9.958 41.441C10.627 41.441 11.257 41.18 11.731 40.708L13.564 38.892C15.062 39.765 16.676 40.437 18.442 40.87V43.474C18.442 44.857 19.53 45.972 20.913 45.972H25.041C26.424 45.972 27.529 44.857 27.529 43.474V40.869C29.296 40.437 30.9 39.765 32.398 38.892L34.215 40.704C34.689 41.179 35.319 41.439 35.99 41.439C36.66 41.439 37.291 41.178 37.764 40.706L40.684 37.789C41.157 37.317 41.416 36.686 41.418 36.017C41.418 35.347 41.156 34.718 40.684 34.244L38.934 32.474C39.854 30.96 40.561 29.295 41.014 27.531H43.452C44.835 27.531 45.972 26.444 45.972 25.06V20.935C45.973 19.555 44.837 18.443 43.454 18.443ZM22.976 30.85C18.598 30.85 15.048 27.333 15.048 22.998C15.048 18.66 18.598 15.148 22.976 15.148C27.355 15.148 30.907 18.66 30.907 22.998C30.906 27.334 27.355 30.85 22.976 30.85Z" fill="none" stroke-width="3" stroke="#000000"/>
</svg>
