<svg width="259" height="56" viewBox="0 0 259 60" fill="none" xmlns="http://www.w3.org/2000/svg">
<path d="M58.697 29.499C58.697 29.705 58.594 31.147 58.388 33.825H16.467C17.2223 37.2583 19.0077 39.9707 21.823 41.962C24.6383 43.9533 28.1403 44.949 32.329 44.949C35.213 44.949 37.7537 44.537 39.951 43.713C42.217 42.8203 44.3113 41.447 46.234 39.593L54.783 48.863C49.5643 54.837 41.9423 57.824 31.917 57.824C25.6683 57.824 20.1407 56.6223 15.334 54.219C10.5273 51.747 6.81933 48.348 4.21 44.022C1.60067 39.696 0.296 34.7863 0.296 29.293C0.296 23.8683 1.56633 18.993 4.107 14.667C6.71633 10.2723 10.2527 6.87333 14.716 4.46999C19.248 1.998 24.295 0.762 29.857 0.762C35.2817 0.762 40.1913 1.92933 44.586 4.264C48.9807 6.59866 52.414 9.96333 54.886 14.358C57.4267 18.684 58.697 23.731 58.697 29.499ZM29.96 12.916C26.3207 12.916 23.265 13.946 20.793 16.006C18.321 18.066 16.8103 20.8813 16.261 24.452H43.556C43.0067 20.95 41.496 18.169 39.024 16.109C36.552 13.9803 33.5307 12.916 29.96 12.916ZM84.7415 8.899C86.6642 6.221 89.2392 4.19533 92.4665 2.822C95.7625 1.44867 99.5392 0.762 103.797 0.762V15.594C102.011 15.4567 100.81 15.388 100.192 15.388C95.5909 15.388 91.9859 16.6927 89.3765 19.302C86.7672 21.8427 85.4625 25.688 85.4625 30.838V57H69.3945V1.586H84.7415V8.899ZM128.698 8.899C130.62 6.221 133.195 4.19533 136.423 2.822C139.719 1.44867 143.495 0.762 147.753 0.762V15.594C145.967 15.4567 144.766 15.388 144.148 15.388C139.547 15.388 135.942 16.6927 133.333 19.302C130.723 21.8427 129.419 25.688 129.419 30.838V57H113.351V1.586H128.698V8.899ZM183.172 57.824C177.335 57.824 172.082 56.6223 167.413 54.219C162.812 51.747 159.207 48.348 156.598 44.022C153.988 39.696 152.684 34.7863 152.684 29.293C152.684 23.7997 153.988 18.89 156.598 14.564C159.207 10.238 162.812 6.87333 167.413 4.46999C172.082 1.998 177.335 0.762 183.172 0.762C189.008 0.762 194.227 1.998 198.828 4.46999C203.428 6.87333 207.033 10.238 209.643 14.564C212.252 18.89 213.557 23.7997 213.557 29.293C213.557 34.7863 212.252 39.696 209.643 44.022C207.033 48.348 203.428 51.747 198.828 54.219C194.227 56.6223 189.008 57.824 183.172 57.824ZM183.172 44.64C187.292 44.64 190.656 43.2667 193.266 40.52C195.944 37.7047 197.283 33.9623 197.283 29.293C197.283 24.6237 195.944 20.9157 193.266 18.169C190.656 15.3537 187.292 13.946 183.172 13.946C179.052 13.946 175.653 15.3537 172.975 18.169C170.297 20.9157 168.958 24.6237 168.958 29.293C168.958 33.9623 170.297 37.7047 172.975 40.52C175.653 43.2667 179.052 44.64 183.172 44.64ZM239.644 8.899C241.567 6.221 244.142 4.19533 247.369 2.822C250.665 1.44867 254.442 0.762 258.699 0.762V15.594C256.914 15.4567 255.712 15.388 255.094 15.388C250.493 15.388 246.888 16.6927 244.279 19.302C241.67 21.8427 240.365 25.688 240.365 30.838V57H224.297V1.586H239.644V8.899Z" fill="#F6FAFD"/>
<path d="M58.388 33.825V34.825H59.314L59.3851 33.9017L58.388 33.825ZM16.467 33.825V32.825H15.2231L15.4904 34.0399L16.467 33.825ZM21.823 41.962L22.4005 41.1456H22.4005L21.823 41.962ZM39.951 43.713L40.3021 44.6493L40.3099 44.6464L40.3175 44.6434L39.951 43.713ZM46.234 39.593L46.9691 38.9151L46.2759 38.1634L45.5399 38.8732L46.234 39.593ZM54.783 48.863L55.5361 49.5209L56.1266 48.8449L55.5181 48.1851L54.783 48.863ZM15.334 54.219L14.8766 55.1083L14.8868 55.1134L15.334 54.219ZM4.21 44.022L3.35371 44.5385L4.21 44.022ZM4.107 14.667L3.24714 14.1565L3.24471 14.1606L4.107 14.667ZM14.716 4.46999L15.1901 5.35048L15.1949 5.34789L14.716 4.46999ZM44.586 4.264L45.0552 3.38088L44.586 4.264ZM54.886 14.358L54.0144 14.8483L54.019 14.8564L54.0237 14.8644L54.886 14.358ZM20.793 16.006L20.1528 15.2378L20.793 16.006ZM16.261 24.452L15.2726 24.2999L15.0954 25.452H16.261V24.452ZM43.556 24.452V25.452H44.7251L44.5439 24.297L43.556 24.452ZM39.024 16.109L38.3715 16.8668L38.3776 16.872L38.3838 16.8772L39.024 16.109ZM57.697 29.499C57.697 29.4969 57.6967 29.5192 57.6934 29.5843C57.6905 29.6428 57.686 29.7219 57.6796 29.8229C57.667 30.0245 57.648 30.3044 57.6223 30.6637C57.571 31.382 57.4939 32.4099 57.3909 33.7483L59.3851 33.9017C59.5882 31.2607 59.697 29.7557 59.697 29.499H57.697ZM58.388 32.825H16.467V34.825H58.388V32.825ZM15.4904 34.0399C16.298 37.7112 18.2225 40.6402 21.2455 42.7784L22.4005 41.1456C19.7928 39.3011 18.1466 36.8055 17.4436 33.6101L15.4904 34.0399ZM21.2455 42.7784C24.2632 44.9129 27.9787 45.949 32.329 45.949V43.949C28.302 43.949 25.0135 42.9938 22.4005 41.1456L21.2455 42.7784ZM32.329 45.949C35.3064 45.949 37.9701 45.5238 40.3021 44.6493L39.5999 42.7767C37.5372 43.5502 35.1196 43.949 32.329 43.949V45.949ZM40.3175 44.6434C42.7168 43.6982 44.9203 42.249 46.9281 40.3128L45.5399 38.8732C43.7024 40.645 41.7172 41.9424 39.5845 42.7826L40.3175 44.6434ZM45.4989 40.2709L54.0479 49.5409L55.5181 48.1851L46.9691 38.9151L45.4989 40.2709ZM54.0299 48.2051C49.0491 53.9068 41.7356 56.824 31.917 56.824V58.824C42.149 58.824 50.0796 55.7672 55.5361 49.5209L54.0299 48.2051ZM31.917 56.824C25.7983 56.824 20.4281 55.648 15.7812 53.3246L14.8868 55.1134C19.8533 57.5967 25.5383 58.824 31.917 58.824V56.824ZM15.7913 53.3297C11.1377 50.9364 7.57306 47.6615 5.06629 43.5055L3.35371 44.5385C6.06561 49.0345 9.91701 52.5576 14.8767 55.1083L15.7913 53.3297ZM5.06629 43.5055C2.55913 39.3489 1.296 34.6208 1.296 29.293H-0.704C-0.704 34.9519 0.642207 40.0431 3.35371 44.5385L5.06629 43.5055ZM1.296 29.293C1.296 24.0314 2.52608 19.3335 4.96929 15.1734L3.24471 14.1606C0.60659 18.6525 -0.704 23.7052 -0.704 29.293H1.296ZM4.96686 15.1775C7.48435 10.9375 10.8879 7.66703 15.1901 5.35047L14.2419 3.58952C9.61742 6.07963 5.94832 9.60712 3.24715 14.1565L4.96686 15.1775ZM15.1949 5.34789C19.5687 2.96216 24.449 1.762 29.857 1.762V-0.237999C24.141 -0.237999 18.9273 1.03384 14.2371 3.5921L15.1949 5.34789ZM29.857 1.762C35.1332 1.762 39.8794 2.89597 44.1168 5.14711L45.0552 3.38088C40.5033 0.962692 35.4302 -0.237999 29.857 -0.237999V1.762ZM44.1168 5.14711C48.3402 7.39077 51.6349 10.618 54.0144 14.8483L55.7576 13.8677C53.1931 9.30866 49.6211 5.80656 45.0552 3.38088L44.1168 5.14711ZM54.0237 14.8644C56.4614 19.0151 57.697 23.882 57.697 29.499H59.697C59.697 23.58 58.3919 18.3529 55.7483 13.8516L54.0237 14.8644ZM29.96 11.916C26.1193 11.916 22.828 13.0084 20.1528 15.2378L21.4332 16.7742C23.702 14.8836 26.5221 13.916 29.96 13.916V11.916ZM20.1528 15.2378C17.4703 17.4732 15.8542 20.52 15.2726 24.2999L17.2494 24.6041C17.7665 21.2427 19.1717 18.6588 21.4332 16.7742L20.1528 15.2378ZM16.261 25.452H43.556V23.452H16.261V25.452ZM44.5439 24.297C43.9611 20.5814 42.3422 17.5724 39.6642 15.3408L38.3838 16.8772C40.6499 18.7656 42.0523 21.3186 42.5681 24.607L44.5439 24.297ZM39.6765 15.3512C37.0054 13.0511 33.7458 11.916 29.96 11.916V13.916C33.3155 13.916 36.0986 14.9096 38.3715 16.8668L39.6765 15.3512ZM84.7415 8.899H83.7415V12.0065L85.5538 9.4822L84.7415 8.899ZM92.4665 2.822L92.0819 1.8989L92.075 1.90184L92.4665 2.822ZM103.797 0.762001H104.797V-0.237999H103.797V0.762001ZM103.797 15.594L103.72 16.5911L104.797 16.6739V15.594H103.797ZM89.3765 19.302L90.0742 20.0185L90.0836 20.0091L89.3765 19.302ZM85.4625 57V58H86.4625V57H85.4625ZM69.3945 57H68.3945V58H69.3945V57ZM69.3945 1.58599V0.585995H68.3945V1.58599H69.3945ZM84.7415 1.58599H85.7415V0.585995H84.7415V1.58599ZM85.5538 9.4822C87.3628 6.96251 89.788 5.04857 92.8581 3.74215L92.075 1.90184C88.6904 3.34209 85.9655 5.47948 83.9292 8.31579L85.5538 9.4822ZM92.8511 3.74508C96.0042 2.43129 99.6463 1.762 103.797 1.762V-0.237999C99.4321 -0.237999 95.5208 0.466038 92.0819 1.89892L92.8511 3.74508ZM102.797 0.762001V15.594H104.797V0.762001H102.797ZM103.873 14.5969C102.093 14.46 100.854 14.388 100.192 14.388V16.388C100.765 16.388 101.929 16.4533 103.72 16.5911L103.873 14.5969ZM100.192 14.388C95.3948 14.388 91.5101 15.7542 88.6694 18.5949L90.0836 20.0091C92.4616 17.6311 95.7869 16.388 100.192 16.388V14.388ZM88.6789 18.5855C85.8078 21.3811 84.4625 25.5316 84.4625 30.838H86.4625C86.4625 25.8444 87.7266 22.3042 90.0741 20.0185L88.6789 18.5855ZM84.4625 30.838V57H86.4625V30.838H84.4625ZM85.4625 56H69.3945V58H85.4625V56ZM70.3945 57V1.58599H68.3945V57H70.3945ZM69.3945 2.58599H84.7415V0.585995H69.3945V2.58599ZM83.7415 1.58599V8.899H85.7415V1.58599H83.7415ZM128.698 8.899H127.698V12.0065L129.51 9.4822L128.698 8.899ZM136.423 2.822L136.038 1.8989L136.031 1.90184L136.423 2.822ZM147.753 0.762001H148.753V-0.237999H147.753V0.762001ZM147.753 15.594L147.676 16.5911L148.753 16.6739V15.594H147.753ZM133.333 19.302L134.03 20.0185L134.04 20.0091L133.333 19.302ZM129.419 57V58H130.419V57H129.419ZM113.351 57H112.351V58H113.351V57ZM113.351 1.58599V0.585995H112.351V1.58599H113.351ZM128.698 1.58599H129.698V0.585995H128.698V1.58599ZM129.51 9.4822C131.319 6.96251 133.744 5.04857 136.814 3.74215L136.031 1.90184C132.646 3.34209 129.922 5.47948 127.885 8.31579L129.51 9.4822ZM136.807 3.74508C139.96 2.43129 143.602 1.762 147.753 1.762V-0.237999C143.388 -0.237999 139.477 0.466038 136.038 1.89892L136.807 3.74508ZM146.753 0.762001V15.594H148.753V0.762001H146.753ZM147.829 14.5969C146.049 14.46 144.81 14.388 144.148 14.388V16.388C144.721 16.388 145.885 16.4533 147.676 16.5911L147.829 14.5969ZM144.148 14.388C139.351 14.388 135.466 15.7542 132.625 18.5949L134.04 20.0091C136.418 17.6311 139.743 16.388 144.148 16.388V14.388ZM132.635 18.5855C129.764 21.3811 128.419 25.5316 128.419 30.838H130.419C130.419 25.8444 131.683 22.3042 134.03 20.0185L132.635 18.5855ZM128.419 30.838V57H130.419V30.838H128.419ZM129.419 56H113.351V58H129.419V56ZM114.351 57V1.58599H112.351V57H114.351ZM113.351 2.58599H128.698V0.585995H113.351V2.58599ZM127.698 1.58599V8.899H129.698V1.58599H127.698ZM167.413 54.219L166.939 55.0999L166.947 55.1041L166.955 55.1081L167.413 54.219ZM156.598 44.022L155.741 44.5385L156.598 44.022ZM156.598 14.564L155.741 14.0475L156.598 14.564ZM167.413 4.46999L167.876 5.35636L167.881 5.35378L167.413 4.46999ZM198.828 4.46999L198.354 5.35095L198.365 5.35634L198.828 4.46999ZM209.643 14.564L210.499 14.0475L209.643 14.564ZM209.643 44.022L210.499 44.5385L209.643 44.022ZM198.828 54.219L199.291 55.1054L199.301 55.0999L198.828 54.219ZM193.266 40.52L192.541 39.8308L192.541 39.8313L193.266 40.52ZM193.266 18.169L192.532 18.8488L192.541 18.858L192.55 18.8671L193.266 18.169ZM172.975 18.169L173.691 18.8672L173.699 18.8582L172.975 18.169ZM172.975 40.52L172.25 41.2093L172.259 41.2181L172.975 40.52ZM183.172 56.824C177.476 56.824 172.383 55.6525 167.87 53.3299L166.955 55.1081C171.781 57.5921 177.194 58.824 183.172 58.824V56.824ZM167.886 53.3381C163.438 50.948 159.967 47.6725 157.454 43.5055L155.741 44.5385C158.447 49.0235 162.186 52.546 166.939 55.0999L167.886 53.3381ZM157.454 43.5055C154.947 39.3489 153.684 34.6208 153.684 29.293H151.684C151.684 34.9519 153.03 40.0431 155.741 44.5385L157.454 43.5055ZM153.684 29.293C153.684 23.9652 154.947 19.2371 157.454 15.0805L155.741 14.0475C153.03 18.5429 151.684 23.6341 151.684 29.293H153.684ZM157.454 15.0805C159.966 10.916 163.433 7.67723 167.876 5.35634L166.95 3.58364C162.191 6.06943 158.448 9.56003 155.741 14.0475L157.454 15.0805ZM167.881 5.35378C172.391 2.96585 177.481 1.762 183.172 1.762V-0.237999C177.189 -0.237999 171.773 1.03015 166.945 3.58621L167.881 5.35378ZM183.172 1.762C188.863 1.762 193.916 2.96592 198.354 5.35089L199.301 3.5891C194.538 1.03008 189.154 -0.237999 183.172 -0.237999V1.762ZM198.365 5.35634C202.808 7.67723 206.274 10.916 208.786 15.0805L210.499 14.0475C207.792 9.56003 204.049 6.06943 199.291 3.58364L198.365 5.35634ZM208.786 15.0805C211.294 19.2371 212.557 23.9652 212.557 29.293H214.557C214.557 23.6341 213.21 18.5429 210.499 14.0475L208.786 15.0805ZM212.557 29.293C212.557 34.6208 211.294 39.3489 208.786 43.5055L210.499 44.5385C213.21 40.0431 214.557 34.9519 214.557 29.293H212.557ZM208.786 43.5055C206.273 47.6725 202.803 50.948 198.354 53.3381L199.301 55.0999C204.054 52.546 207.794 49.0235 210.499 44.5385L208.786 43.5055ZM198.365 53.3326C193.924 55.6525 188.867 56.824 183.172 56.824V58.824C189.149 58.824 194.53 57.5922 199.291 55.1053L198.365 53.3326ZM183.172 45.64C187.539 45.64 191.175 44.1727 193.991 41.2087L192.541 39.8313C190.138 42.3607 187.044 43.64 183.172 43.64V45.64ZM193.99 41.2092C196.88 38.1717 198.283 34.164 198.283 29.293H196.283C196.283 33.7607 195.008 37.2377 192.541 39.8308L193.99 41.2092ZM198.283 29.293C198.283 24.423 196.88 20.4434 193.982 17.4709L192.55 18.8671C195.008 21.388 196.283 24.8244 196.283 29.293H198.283ZM193.999 17.4892C191.186 14.4535 187.547 12.946 183.172 12.946V14.946C187.036 14.946 190.127 16.2538 192.532 18.8488L193.999 17.4892ZM183.172 12.946C178.796 12.946 175.129 14.453 172.25 17.4798L173.699 18.8582C176.176 16.2543 179.307 14.946 183.172 14.946V12.946ZM172.259 17.4709C169.361 20.4434 167.958 24.423 167.958 29.293H169.958C169.958 24.8244 171.233 21.388 173.691 18.8671L172.259 17.4709ZM167.958 29.293C167.958 34.164 169.361 38.1717 172.25 41.2092L173.699 39.8308C171.233 37.2377 169.958 33.7607 169.958 29.293H167.958ZM172.259 41.2181C175.14 44.1731 178.804 45.64 183.172 45.64V43.64C179.299 43.64 176.166 42.3602 173.691 39.8219L172.259 41.2181ZM239.644 8.899H238.644V12.0065L240.456 9.4822L239.644 8.899ZM247.369 2.822L246.984 1.8989L246.977 1.90184L247.369 2.822ZM258.699 0.762001H259.699V-0.237999H258.699V0.762001ZM258.699 15.594L258.622 16.5911L259.699 16.6739V15.594H258.699ZM244.279 19.302L244.977 20.0185L244.986 20.0091L244.279 19.302ZM240.365 57V58H241.365V57H240.365ZM224.297 57H223.297V58H224.297V57ZM224.297 1.58599V0.585995H223.297V1.58599H224.297ZM239.644 1.58599H240.644V0.585995H239.644V1.58599ZM240.456 9.4822C242.265 6.96251 244.69 5.04857 247.76 3.74215L246.977 1.90184C243.593 3.34209 240.868 5.47948 238.832 8.31579L240.456 9.4822ZM247.753 3.74508C250.907 2.43129 254.549 1.762 258.699 1.762V-0.237999C254.334 -0.237999 250.423 0.466038 246.984 1.89892L247.753 3.74508ZM257.699 0.762001V15.594H259.699V0.762001H257.699ZM258.776 14.5969C256.996 14.46 255.756 14.388 255.094 14.388V16.388C255.667 16.388 256.831 16.4533 258.622 16.5911L258.776 14.5969ZM255.094 14.388C250.297 14.388 246.412 15.7542 243.572 18.5949L244.986 20.0091C247.364 17.6311 250.689 16.388 255.094 16.388V14.388ZM243.581 18.5855C240.71 21.3811 239.365 25.5316 239.365 30.838H241.365C241.365 25.8444 242.629 22.3042 244.976 20.0185L243.581 18.5855ZM239.365 30.838V57H241.365V30.838H239.365ZM240.365 56H224.297V58H240.365V56ZM225.297 57V1.58599H223.297V57H225.297ZM224.297 2.58599H239.644V0.585995H224.297V2.58599ZM238.644 1.58599V8.899H240.644V1.58599H238.644Z" fill="#8D90E8"/>
</svg>
